<?xml version="1.0" standalone="no"?>
<!DOCTYPE svg PUBLIC "-//W3C//DTD SVG 20010904//EN"
 "http://www.w3.org/TR/2001/REC-SVG-20010904/DTD/svg10.dtd">
<svg version="1.0" xmlns="http://www.w3.org/2000/svg"
 width="500.000000pt" height="500.000000pt" viewBox="0 0 500.000000 500.000000"
 preserveAspectRatio="xMidYMid meet">
<metadata>
Created by potrace 1.11, written by Peter Selinger 2001-2013
</metadata>
<g transform="translate(0.000000,500.000000) scale(0.100000,-0.100000)"
fill="#000000" stroke="none">
<path d="M3625 4872 c-3 -3 -13 -7 -23 -9 -21 -3 -109 -14 -142 -18 -14 -2
-45 -7 -70 -12 -54 -10 -206 -10 -275 0 -27 4 -70 10 -95 14 -127 18 -249 0
-320 -46 -14 -9 -43 -26 -65 -36 -22 -11 -42 -23 -45 -26 -8 -10 -137 -69
-162 -73 -13 -3 -23 -5 -23 -6 0 -3 -39 -10 -80 -15 -39 -4 -92 -12 -148 -21
-146 -24 -240 -135 -244 -292 -3 -107 25 -160 118 -223 32 -21 61 -39 64 -39
9 0 137 -86 170 -115 79 -68 95 -84 95 -90 0 -4 8 -18 19 -31 18 -23 18 -25
-6 -111 -38 -133 -36 -129 -85 -137 -59 -9 -226 -52 -263 -67 -16 -7 -34 -13
-40 -15 -5 -1 -28 -10 -50 -20 -22 -10 -42 -18 -45 -18 -8 -2 -183 -96 -211
-114 -14 -9 -46 -30 -70 -46 -24 -16 -46 -32 -49 -35 -3 -4 -25 -22 -50 -41
-56 -43 -115 -96 -149 -133 -24 -27 -29 -28 -91 -23 -36 3 -76 8 -90 10 -14 3
-56 7 -95 11 -70 6 -134 13 -190 20 -16 2 -59 7 -95 10 -36 3 -76 8 -90 11
-13 3 -51 7 -85 10 -97 7 -132 11 -143 18 -6 3 -14 2 -17 -4 -4 -6 -3 -10 2
-9 4 1 19 -3 33 -8 53 -22 126 -55 145 -66 11 -6 49 -26 85 -45 99 -52 155
-85 158 -94 2 -4 8 -8 14 -8 17 0 208 -137 208 -149 0 -4 -14 -29 -32 -57 -17
-27 -33 -55 -34 -62 -1 -7 -9 -23 -17 -35 -25 -40 -105 -258 -123 -339 -2 -10
-6 -28 -9 -40 -3 -13 -8 -36 -11 -53 -2 -16 -7 -43 -10 -60 -3 -16 -6 -53 -8
-81 -1 -28 -5 -55 -8 -60 -12 -21 8 -419 22 -419 1 0 4 -16 6 -35 6 -50 9 -64
16 -75 3 -6 10 -28 14 -50 12 -65 102 -305 114 -305 4 0 11 -12 15 -27 3 -15
15 -39 26 -55 11 -15 17 -28 12 -28 -4 0 -3 -4 2 -8 6 -4 26 -31 45 -61 39
-62 129 -182 169 -224 64 -69 172 -170 221 -207 19 -14 46 -35 61 -47 15 -13
32 -23 38 -23 6 0 11 -4 11 -10 0 -5 4 -10 9 -10 5 0 39 -18 75 -40 36 -22 70
-40 76 -40 5 0 10 -4 10 -9 0 -5 14 -12 30 -16 17 -4 30 -11 30 -16 0 -5 3 -8
8 -7 4 1 25 -6 47 -16 61 -27 235 -83 280 -91 22 -4 47 -9 55 -12 8 -3 26 -7
40 -9 14 -2 41 -5 60 -8 100 -17 246 -22 365 -13 139 11 170 15 255 36 25 7
54 14 65 16 11 3 51 14 88 24 63 18 71 19 110 5 23 -9 49 -17 57 -19 8 -2 16
-4 18 -5 1 -2 5 -3 10 -4 4 -1 16 -5 27 -9 11 -3 31 -9 45 -11 14 -3 45 -10
70 -16 56 -12 128 -23 158 -24 12 0 22 -3 22 -7 0 -10 34 -5 42 6 5 6 8 5 8
-3 0 -11 30 -13 145 -11 80 2 145 7 145 12 0 5 6 4 13 -2 8 -6 16 -8 19 -5 4
3 21 8 40 10 18 3 44 8 58 10 14 3 36 7 50 9 14 1 61 13 105 25 44 12 85 23
90 24 30 5 135 50 135 57 0 8 -18 15 -61 23 -8 2 -21 5 -29 8 -18 7 -103 33
-110 34 -3 0 -12 3 -20 7 -8 3 -35 12 -60 21 -127 43 -206 77 -345 148 -44 23
-89 46 -101 52 -19 9 -15 16 66 95 81 81 213 244 242 301 7 14 15 27 18 30 18
18 130 248 131 270 1 3 5 11 11 18 6 6 8 12 4 12 -4 0 0 14 9 30 9 17 13 30 9
30 -4 0 -1 7 6 15 7 8 9 15 6 15 -4 0 -2 8 3 19 17 31 60 260 66 351 6 75 9
245 5 245 -1 0 -4 23 -6 50 -12 136 -49 312 -90 420 -4 11 -8 25 -10 32 -4 19
-86 196 -101 218 -21 31 -16 43 25 56 71 22 108 107 81 184 -14 38 -80 79
-126 77 -40 -2 -83 -23 -103 -51 -19 -28 -34 -26 -56 7 -23 36 -251 262 -264
262 -5 0 -10 4 -10 10 0 13 61 113 74 122 6 4 7 8 3 8 -4 0 -2 10 5 23 7 12
11 25 10 30 -1 4 3 7 8 7 5 0 9 3 9 8 -1 4 0 9 1 12 1 3 3 13 6 23 2 9 5 23 7
30 2 6 7 28 11 47 11 48 39 101 66 125 27 24 68 105 64 128 -1 10 2 17 7 17 5
0 9 6 9 13 0 17 44 58 95 87 96 56 154 98 210 156 74 76 85 90 78 98 -4 3 -2
6 4 6 11 0 34 49 54 114 12 41 13 171 2 190 -4 6 -8 17 -9 23 -3 19 -41 64
-76 90 -30 21 -82 41 -133 50 -11 2 -32 17 -47 33 -15 17 -32 30 -38 30 -5 0
-10 4 -10 9 0 17 -199 142 -225 141 -3 0 -7 1 -10 1 -3 1 -13 2 -22 3 -10 1
-23 4 -28 8 -12 8 -192 7 -200 0z"/>
</g>
</svg>
